<svg width="30" height="30" viewBox="0 0 30 30" fill="none" xmlns="http://www.w3.org/2000/svg">
<path d="M6.25 22.5V27.2075L8.14375 26.0713L14.0963 22.5H20C21.3787 22.5 22.5 21.3787 22.5 20V10C22.5 8.62125 21.3787 7.5 20 7.5H5C3.62125 7.5 2.5 8.62125 2.5 10V20C2.5 21.3787 3.62125 22.5 5 22.5H6.25ZM5 10H20V20H13.4037L8.75 22.7925V20H5V10Z" fill="white"/>
<path d="M25 2.5H10C8.62125 2.5 7.5 3.62125 7.5 5H22.5C23.8787 5 25 6.12125 25 7.5V17.5C26.3787 17.5 27.5 16.3787 27.5 15V5C27.5 3.62125 26.3787 2.5 25 2.5Z" fill="white"/>
</svg>
