<svg width="23" height="24" viewBox="0 0 23 24" fill="none" xmlns="http://www.w3.org/2000/svg">
<path d="M21.0036 7.60691C22.0005 6.56198 22.3802 5.03473 21.5293 3.85615C21.2062 3.41153 20.8541 2.99086 20.4753 2.59729C20.0995 2.20052 19.698 1.83141 19.2737 1.49257C18.1487 0.601772 16.6908 0.999451 15.6934 2.04383L7.75252 10.3634C7.47269 10.6566 7.2808 11.0284 7.24328 11.4412C7.17844 12.1407 7.1193 13.4486 7.25459 15.478C7.28948 15.9976 7.68408 16.411 8.18 16.4476C10.1173 16.5893 11.3657 16.5273 12.0339 16.4599C12.4274 16.4201 12.7824 16.219 13.0622 15.9264L21.0036 7.60691Z" stroke="black" stroke-width="1.5" stroke-linecap="round" stroke-linejoin="round"/>
<path d="M19.8005 8.86723C19.5063 8.18554 18.8705 7.02961 17.5577 5.65377C16.2449 4.27904 15.1416 3.61246 14.4908 3.3042" stroke="black" stroke-width="1.5" stroke-linecap="round" stroke-linejoin="round"/>
<path d="M21.5624 11.6549C21.5716 11.8429 21.5762 12.032 21.5762 12.2223C21.5762 18.175 16.9703 23.0003 11.2881 23.0003C5.606 23.0003 1 18.175 1 12.2223C1 6.2696 5.606 1.44434 11.2881 1.44434C11.4697 1.44434 11.6502 1.44971 11.8298 1.45885" stroke="black" stroke-width="1.5" stroke-linecap="round" stroke-linejoin="round"/>
</svg>
