<svg width="29" height="29" viewBox="0 0 29 29" fill="none" xmlns="http://www.w3.org/2000/svg">
<path d="M19.3333 8.46438C17.9953 7.29346 16.2781 6.64736 14.5 6.64583C10.3288 6.64583 6.94793 10.1621 6.94793 14.5C6.94793 18.8379 10.3288 22.3542 14.5 22.3542C17.8592 22.3542 20.7072 20.0716 21.6884 16.9167H15.1042V12.0833H26.6607C26.8081 12.8663 26.8854 13.6735 26.8854 14.5C26.8854 21.5071 21.3392 27.1875 14.5 27.1875C7.66084 27.1875 2.11459 21.5071 2.11459 14.5C2.11459 7.49288 7.66084 1.8125 14.5 1.8125C17.6719 1.8125 20.5658 3.03292 22.7553 5.04237L19.3333 8.46438Z" stroke="#06D48A" stroke-linejoin="round"/>
<path d="M18.9648 20.8353L22.7553 23.9576" stroke="#06D48A" stroke-linejoin="round"/>
<path d="M7.31162 16.9167L3.39178 20.1175" stroke="#06D48A" stroke-linejoin="round"/>
<path d="M7.31162 12.0833L3.39178 8.88125" stroke="#06D48A" stroke-linejoin="round"/>
</svg>
