<svg width="30" height="30" viewBox="0 0 30 30" fill="none" xmlns="http://www.w3.org/2000/svg">
<path d="M25.8874 24.1125L21.6374 19.875C23.0087 18.1281 23.7527 15.9708 23.7499 13.75C23.7499 11.7722 23.1635 9.83879 22.0646 8.1943C20.9658 6.54981 19.404 5.26809 17.5768 4.51121C15.7495 3.75433 13.7389 3.5563 11.799 3.94215C9.85923 4.328 8.0774 5.28041 6.67888 6.67894C5.28035 8.07746 4.32794 9.85929 3.94209 11.7991C3.55624 13.7389 3.75427 15.7496 4.51115 17.5768C5.26802 19.4041 6.54975 20.9659 8.19424 22.0647C9.83873 23.1635 11.7721 23.75 13.7499 23.75C15.9708 23.7528 18.128 23.0087 19.8749 21.6375L24.1124 25.8875C24.2286 26.0047 24.3669 26.0977 24.5192 26.1611C24.6715 26.2246 24.8349 26.2573 24.9999 26.2573C25.165 26.2573 25.3283 26.2246 25.4807 26.1611C25.633 26.0977 25.7712 26.0047 25.8874 25.8875C26.0046 25.7713 26.0976 25.633 26.1611 25.4807C26.2245 25.3284 26.2572 25.165 26.2572 25C26.2572 24.835 26.2245 24.6716 26.1611 24.5193C26.0976 24.367 26.0046 24.2287 25.8874 24.1125ZM6.24994 13.75C6.24994 12.2666 6.68981 10.8166 7.51392 9.58323C8.33803 8.34986 9.50937 7.38857 10.8798 6.82091C12.2503 6.25325 13.7583 6.10473 15.2131 6.39411C16.668 6.6835 18.0044 7.39781 19.0532 8.4467C20.1021 9.4956 20.8164 10.832 21.1058 12.2868C21.3952 13.7417 21.2467 15.2497 20.679 16.6201C20.1114 17.9906 19.1501 19.1619 17.9167 19.986C16.6834 20.8101 15.2333 21.25 13.7499 21.25C11.7608 21.25 9.85317 20.4598 8.44664 19.0533C7.04012 17.6468 6.24994 15.7391 6.24994 13.75Z" fill="white"/>
</svg>
