<svg width="24" height="24" viewBox="0 0 24 24" fill="none" xmlns="http://www.w3.org/2000/svg">
<path d="M19.485 20.154L13.223 13.892C12.723 14.318 12.148 14.6476 11.498 14.881C10.848 15.1143 10.1947 15.231 9.538 15.231C7.93667 15.231 6.58133 14.6766 5.472 13.568C4.36267 12.4586 3.808 11.1036 3.808 9.50298C3.808 7.90232 4.362 6.54665 5.47 5.43598C6.57867 4.32465 7.93333 3.76898 9.534 3.76898C11.1353 3.76898 12.4913 4.32365 13.602 5.43298C14.7127 6.54232 15.268 7.89798 15.268 9.49998C15.268 10.1946 15.145 10.867 14.899 11.517C14.6523 12.167 14.329 12.723 13.929 13.185L20.191 19.446L19.485 20.154ZM9.538 14.23C10.8647 14.23 11.985 13.7733 12.899 12.86C13.8123 11.9466 14.269 10.8263 14.269 9.49898C14.269 8.17231 13.8123 7.05232 12.899 6.13898C11.9857 5.22565 10.8657 4.76898 9.539 4.76898C8.21233 4.76898 7.092 5.22565 6.178 6.13898C5.26467 7.05232 4.808 8.17231 4.808 9.49898C4.808 10.8256 5.26467 11.9456 6.178 12.859C7.09133 13.7723 8.21133 14.23 9.538 14.23Z" fill="black"/>
</svg>
