<svg width="30" height="30" viewBox="0 0 30 30" fill="none" xmlns="http://www.w3.org/2000/svg">
<g clip-path="url(#clip0_137_30)">
<g filter="url(#filter0_d_137_30)">
<path d="M7.5 23.75H11.25V17.5C11.25 17.1458 11.37 16.8492 11.61 16.61C11.85 16.3708 12.1467 16.2508 12.5 16.25H17.5C17.8542 16.25 18.1512 16.37 18.3912 16.61C18.6312 16.85 18.7508 17.1467 18.75 17.5V23.75H22.5V12.5L15 6.875L7.5 12.5V23.75ZM5 23.75V12.5C5 12.1042 5.08875 11.7292 5.26625 11.375C5.44375 11.0208 5.68833 10.7292 6 10.5L13.5 4.875C13.9375 4.54167 14.4375 4.375 15 4.375C15.5625 4.375 16.0625 4.54167 16.5 4.875L24 10.5C24.3125 10.7292 24.5575 11.0208 24.735 11.375C24.9125 11.7292 25.0008 12.1042 25 12.5V23.75C25 24.4375 24.755 25.0263 24.265 25.5163C23.775 26.0063 23.1867 26.2508 22.5 26.25H17.5C17.1458 26.25 16.8492 26.13 16.61 25.89C16.3708 25.65 16.2508 25.3533 16.25 25V18.75H13.75V25C13.75 25.3542 13.63 25.6512 13.39 25.8912C13.15 26.1312 12.8533 26.2508 12.5 26.25H7.5C6.8125 26.25 6.22417 26.0054 5.735 25.5163C5.24583 25.0271 5.00083 24.4383 5 23.75Z" fill="black"/>
</g>
</g>
<defs>
<filter id="filter0_d_137_30" x="1" y="4.375" width="28" height="29.875" filterUnits="userSpaceOnUse" color-interpolation-filters="sRGB">
<feFlood flood-opacity="0" result="BackgroundImageFix"/>
<feColorMatrix in="SourceAlpha" type="matrix" values="0 0 0 0 0 0 0 0 0 0 0 0 0 0 0 0 0 0 127 0" result="hardAlpha"/>
<feOffset dy="4"/>
<feGaussianBlur stdDeviation="2"/>
<feComposite in2="hardAlpha" operator="out"/>
<feColorMatrix type="matrix" values="0 0 0 0 0 0 0 0 0 0 0 0 0 0 0 0 0 0 0.25 0"/>
<feBlend mode="normal" in2="BackgroundImageFix" result="effect1_dropShadow_137_30"/>
<feBlend mode="normal" in="SourceGraphic" in2="effect1_dropShadow_137_30" result="shape"/>
</filter>
<clipPath id="clip0_137_30">
<rect width="30" height="30" fill="white"/>
</clipPath>
</defs>
</svg>
