<svg width="15" height="15" viewBox="0 0 15 15" fill="none" xmlns="http://www.w3.org/2000/svg">
<g clip-path="url(#clip0_138_5)">
<path fill-rule="evenodd" clip-rule="evenodd" d="M6.56251 1.25C5.71538 1.25007 4.88055 1.45273 4.12767 1.84106C3.37479 2.22939 2.72569 2.79214 2.23453 3.48235C1.74337 4.17256 1.42439 4.97022 1.3042 5.80878C1.18401 6.64734 1.2661 7.50248 1.54362 8.30286C1.82114 9.10325 2.28604 9.82566 2.89953 10.4098C3.51302 10.994 4.25732 11.423 5.07033 11.661C5.88333 11.899 6.74147 11.9392 7.57314 11.7781C8.40482 11.617 9.18591 11.2594 9.85126 10.735L12.1338 13.0175C12.2516 13.1313 12.4095 13.1943 12.5734 13.1929C12.7373 13.1915 12.894 13.1258 13.0099 13.0099C13.1258 12.894 13.1915 12.7372 13.1929 12.5734C13.1944 12.4095 13.1314 12.2516 13.0175 12.1337L10.735 9.85125C11.3525 9.06789 11.737 8.1265 11.8444 7.13483C11.9519 6.14316 11.778 5.14126 11.3426 4.24381C10.9073 3.34635 10.2281 2.5896 9.38269 2.06014C8.53733 1.53069 7.55998 1.24993 6.56251 1.25ZM2.50001 6.5625C2.50001 5.48506 2.92802 4.45175 3.68988 3.68988C4.45175 2.92801 5.48506 2.5 6.56251 2.5C7.63995 2.5 8.67326 2.92801 9.43513 3.68988C10.197 4.45175 10.625 5.48506 10.625 6.5625C10.625 7.63994 10.197 8.67325 9.43513 9.43512C8.67326 10.197 7.63995 10.625 6.56251 10.625C5.48506 10.625 4.45175 10.197 3.68988 9.43512C2.92802 8.67325 2.50001 7.63994 2.50001 6.5625Z" fill="#5E5757"/>
</g>
<defs>
<clipPath id="clip0_138_5">
<rect width="15" height="15" fill="white"/>
</clipPath>
</defs>
</svg>
