<svg width="30" height="30" viewBox="0 0 30 30" fill="none" xmlns="http://www.w3.org/2000/svg">
<path d="M4.375 4.6875C4.375 4.60462 4.40792 4.52513 4.46653 4.46653C4.52513 4.40792 4.60462 4.375 4.6875 4.375H21.5625C21.6454 4.375 21.7249 4.40792 21.7835 4.46653C21.8421 4.52513 21.875 4.60462 21.875 4.6875V17.1875C21.875 17.4361 21.9738 17.6746 22.1496 17.8504C22.3254 18.0262 22.5639 18.125 22.8125 18.125C23.0611 18.125 23.2996 18.0262 23.4754 17.8504C23.6512 17.6746 23.75 17.4361 23.75 17.1875V4.6875C23.75 4.10734 23.5195 3.55094 23.1093 3.1407C22.6991 2.73047 22.1427 2.5 21.5625 2.5H4.6875C4.10734 2.5 3.55094 2.73047 3.1407 3.1407C2.73047 3.55094 2.5 4.10734 2.5 4.6875V25.3125C2.5 26.52 3.48 27.5 4.6875 27.5H13.4375C13.6861 27.5 13.9246 27.4012 14.1004 27.2254C14.2762 27.0496 14.375 26.8111 14.375 26.5625C14.375 26.3139 14.2762 26.0754 14.1004 25.8996C13.9246 25.7238 13.6861 25.625 13.4375 25.625H4.6875C4.60462 25.625 4.52513 25.5921 4.46653 25.5335C4.40792 25.4749 4.375 25.3954 4.375 25.3125V4.6875Z" fill="white"/>
<path d="M7.8125 8.75C7.56386 8.75 7.3254 8.84877 7.14959 9.02459C6.97377 9.2004 6.875 9.43886 6.875 9.6875C6.875 9.93614 6.97377 10.1746 7.14959 10.3504C7.3254 10.5262 7.56386 10.625 7.8125 10.625H18.4375C18.6861 10.625 18.9246 10.5262 19.1004 10.3504C19.2762 10.1746 19.375 9.93614 19.375 9.6875C19.375 9.43886 19.2762 9.2004 19.1004 9.02459C18.9246 8.84877 18.6861 8.75 18.4375 8.75H7.8125ZM6.875 14.6875C6.875 14.4389 6.97377 14.2004 7.14959 14.0246C7.3254 13.8488 7.56386 13.75 7.8125 13.75H13.4375C13.6861 13.75 13.9246 13.8488 14.1004 14.0246C14.2762 14.2004 14.375 14.4389 14.375 14.6875C14.375 14.9361 14.2762 15.1746 14.1004 15.3504C13.9246 15.5262 13.6861 15.625 13.4375 15.625H7.8125C7.56386 15.625 7.3254 15.5262 7.14959 15.3504C6.97377 15.1746 6.875 14.9361 6.875 14.6875ZM27.225 20.35C27.3171 20.2642 27.391 20.1607 27.4422 20.0457C27.4935 19.9307 27.521 19.8065 27.5232 19.6807C27.5255 19.5548 27.5023 19.4297 27.4552 19.313C27.408 19.1963 27.3378 19.0902 27.2488 19.0012C27.1598 18.9122 27.0537 18.842 26.937 18.7948C26.8203 18.7477 26.6952 18.7245 26.5693 18.7268C26.4435 18.729 26.3193 18.7565 26.2043 18.8078C26.0893 18.859 25.9858 18.9329 25.9 19.025L19.6875 25.2375L17.225 22.775C17.1392 22.6829 17.0357 22.609 16.9207 22.5578C16.8057 22.5065 16.6815 22.479 16.5557 22.4768C16.4298 22.4745 16.3047 22.4977 16.188 22.5448C16.0713 22.592 15.9652 22.6622 15.8762 22.7512C15.7872 22.8402 15.717 22.9463 15.6698 23.063C15.6227 23.1797 15.5995 23.3048 15.6018 23.4307C15.604 23.5565 15.6315 23.6807 15.6828 23.7957C15.734 23.9107 15.8079 24.0142 15.9 24.1L19.025 27.225C19.2008 27.4006 19.4391 27.4992 19.6875 27.4992C19.9359 27.4992 20.1742 27.4006 20.35 27.225L27.225 20.35Z" fill="white"/>
</svg>
