<svg width="21" height="21" viewBox="0 0 21 21" fill="none" xmlns="http://www.w3.org/2000/svg">
<path fill-rule="evenodd" clip-rule="evenodd" d="M7.172 13.829C11.017 17.674 14.58 18.095 15.626 18.134C16.89 18.18 18.18 17.148 18.738 16.091C17.848 15.047 16.689 14.237 15.42 13.359C14.671 14.107 13.748 15.497 12.519 14.999C11.82 14.718 10.094 13.923 8.586 12.414C7.077 10.906 6.283 9.17997 6 8.48197C5.502 7.25097 6.896 6.32597 7.645 5.57697C6.767 4.28697 5.971 3.09797 4.929 2.25297C3.857 2.81297 2.819 4.09297 2.866 5.37397C2.905 6.41997 3.326 9.98297 7.172 13.829ZM15.552 20.133C14.112 20.08 10.031 19.516 5.757 15.243C1.484 10.969 0.921 6.88897 0.867 5.44797C0.787 3.25197 2.469 1.11897 4.412 0.285971C4.64598 0.184938 4.9022 0.146472 5.15553 0.174347C5.40886 0.202222 5.65059 0.29548 5.857 0.444971C7.465 1.61797 8.574 3.39497 9.527 4.78697C9.72525 5.07642 9.81607 5.42607 9.78375 5.77542C9.75142 6.12476 9.59799 6.45181 9.35 6.69997L7.994 8.05697C8.309 8.75197 8.95 9.94997 10 11C11.05 12.05 12.248 12.691 12.944 13.006L14.299 11.65C14.5481 11.4015 14.8765 11.2482 15.227 11.217C15.5775 11.1857 15.9278 11.2784 16.217 11.479C17.637 12.463 19.305 13.556 20.521 15.113C20.6826 15.3209 20.7854 15.5684 20.8187 15.8296C20.8519 16.0908 20.8144 16.3562 20.71 16.598C19.873 18.551 17.755 20.214 15.552 20.133Z" fill="black"/>
</svg>
