<svg width="23" height="27" viewBox="0 0 23 27" fill="none" xmlns="http://www.w3.org/2000/svg">
<g filter="url(#filter0_d_103_136)">
<path d="M11.5 8.45833C12.3241 8.45833 13.1297 8.21396 13.8149 7.75612C14.5001 7.29829 15.0341 6.64754 15.3495 5.88618C15.6648 5.12482 15.7474 4.28705 15.5866 3.47879C15.4258 2.67054 15.029 1.92811 14.4463 1.34539C13.8635 0.762671 13.1211 0.365835 12.3129 0.205063C11.5046 0.0442915 10.6668 0.126805 9.90546 0.44217C9.14411 0.757536 8.49336 1.29159 8.03552 1.97679C7.57768 2.662 7.33331 3.46758 7.33331 4.29167C7.33331 5.39674 7.7723 6.45655 8.5537 7.23795C9.3351 8.01935 10.3949 8.45833 11.5 8.45833ZM11.5 2.20833C11.912 2.20833 12.3148 2.33052 12.6574 2.55944C13 2.78836 13.267 3.11373 13.4247 3.49441C13.5824 3.87509 13.6237 4.29398 13.5433 4.69811C13.4629 5.10223 13.2645 5.47345 12.9731 5.76481C12.6818 6.05617 12.3105 6.25459 11.9064 6.33497C11.5023 6.41536 11.0834 6.3741 10.7027 6.21642C10.322 6.05873 9.99667 5.79171 9.76775 5.44911C9.53883 5.1065 9.41665 4.70371 9.41665 4.29167C9.41665 3.73913 9.63614 3.20923 10.0268 2.81853C10.4175 2.42783 10.9474 2.20833 11.5 2.20833Z" fill="#231F20"/>
<path d="M11.5 10.5417C9.56611 10.5417 7.71145 11.3099 6.34399 12.6774C4.97654 14.0448 4.20831 15.8995 4.20831 17.8334C4.20831 18.1096 4.31806 18.3746 4.51341 18.5699C4.70876 18.7653 4.97371 18.875 5.24998 18.875C5.52625 18.875 5.7912 18.7653 5.98655 18.5699C6.1819 18.3746 6.29165 18.1096 6.29165 17.8334C6.29165 16.452 6.84038 15.1273 7.81713 14.1505C8.79388 13.1738 10.1186 12.625 11.5 12.625C12.8813 12.625 14.2061 13.1738 15.1828 14.1505C16.1596 15.1273 16.7083 16.452 16.7083 17.8334C16.7083 18.1096 16.8181 18.3746 17.0134 18.5699C17.2088 18.7653 17.4737 18.875 17.75 18.875C18.0262 18.875 18.2912 18.7653 18.4865 18.5699C18.6819 18.3746 18.7916 18.1096 18.7916 17.8334C18.7916 15.8995 18.0234 14.0448 16.656 12.6774C15.2885 11.3099 13.4338 10.5417 11.5 10.5417Z" fill="#231F20"/>
</g>
<defs>
<filter id="filter0_d_103_136" x="0.208313" y="0.125" width="22.5833" height="26.75" filterUnits="userSpaceOnUse" color-interpolation-filters="sRGB">
<feFlood flood-opacity="0" result="BackgroundImageFix"/>
<feColorMatrix in="SourceAlpha" type="matrix" values="0 0 0 0 0 0 0 0 0 0 0 0 0 0 0 0 0 0 127 0" result="hardAlpha"/>
<feOffset dy="4"/>
<feGaussianBlur stdDeviation="2"/>
<feComposite in2="hardAlpha" operator="out"/>
<feColorMatrix type="matrix" values="0 0 0 0 0 0 0 0 0 0 0 0 0 0 0 0 0 0 0.25 0"/>
<feBlend mode="normal" in2="BackgroundImageFix" result="effect1_dropShadow_103_136"/>
<feBlend mode="normal" in="SourceGraphic" in2="effect1_dropShadow_103_136" result="shape"/>
</filter>
</defs>
</svg>
