<svg width="30" height="30" viewBox="0 0 30 30" fill="none" xmlns="http://www.w3.org/2000/svg">
<path d="M0 15C0 6.71573 6.71573 0 15 0C23.2843 0 30 6.71573 30 15C30 23.2843 23.2843 30 15 30C6.71573 30 0 23.2843 0 15Z" fill="currentColor"/>
<path d="M8.0925 10.2245C8.99279 8.83508 10.7997 6.15265 11.8018 4.99891C12.0782 4.68072 12.4519 4.49514 12.8553 4.4247C13.7405 4.27011 15.4534 4.05621 17.0474 4.34524C17.5911 4.44381 18.0623 4.77867 18.4234 5.21901C18.7624 5.63253 19.1633 6.12544 19.3358 6.35316L20.2265 5.88292C20.6715 5.64795 21.1761 6.04156 21.0842 6.55793C20.7458 8.45843 20.0408 11.9171 19.3358 12.2893C18.6192 12.6676 15.4072 11.6592 13.7433 11.0938C13.2945 10.9413 13.1857 10.3341 13.5436 10.0102L14.4474 9.19218L13.4697 7.12743" stroke="black" stroke-width="1.5" stroke-linecap="round" stroke-linejoin="round"/>
<path d="M22.5637 10.7822C23.2531 12.3003 24.5496 15.2938 24.9948 16.7871C25.1176 17.1989 25.0829 17.6334 24.939 18.0375C24.6232 18.9243 23.9421 20.5977 22.9081 21.9108C22.5554 22.3587 22.0452 22.6222 21.5035 22.7322C20.9948 22.8355 20.3901 22.9556 20.1171 22.9996L20.0575 24.0491C20.0277 24.5736 19.4525 24.8383 19.075 24.496C17.6855 23.2363 15.2014 20.8622 15.2487 20.0315C15.2967 19.1869 17.7296 16.7539 19.0253 15.515C19.3748 15.1809 19.9272 15.385 20.0139 15.8743L20.2329 17.1098L22.4151 17.248" stroke="black" stroke-width="1.5" stroke-linecap="round" stroke-linejoin="round"/>
<path d="M14.9869 23.7315C13.3971 23.6029 10.2937 23.2918 8.84644 22.9523C8.4473 22.8586 8.10823 22.6097 7.84876 22.276C7.27934 21.5438 6.24746 20.0843 5.68751 18.4822C5.49653 17.9357 5.53556 17.3374 5.71616 16.787C5.88577 16.2702 6.08962 15.6572 6.19011 15.3856L5.35913 14.8062C4.94389 14.5167 5.0144 13.8584 5.48387 13.6844C7.21176 13.0436 10.4008 11.9589 11.0586 12.4175C11.7273 12.8837 12.5062 16.3251 12.8744 18.1294C12.9738 18.616 12.5302 19.0192 12.0855 18.8538L10.9627 18.4364L9.75817 20.3627" stroke="black" stroke-width="1.5" stroke-linecap="round" stroke-linejoin="round"/>
</svg>
