<svg width="17" height="17" viewBox="0 0 17 17" fill="none" xmlns="http://www.w3.org/2000/svg">
<path d="M16.0001 16L13.941 13.9404" stroke="black" stroke-width="1.71" stroke-linecap="round" stroke-linejoin="round"/>
<path d="M4.88479 7.09717C4.6142 7.11727 4.3405 7.12999 4.06413 7.12999C3.51522 7.12999 2.97683 7.07978 2.45247 7.02132C1.74653 6.94261 1.17846 6.37438 1.10289 5.66788C1.04711 5.14634 1 4.61089 1 4.065C1 3.51911 1.04711 2.98365 1.10289 2.46211C1.17845 1.75562 1.74653 1.18739 2.45247 1.10868C2.97683 1.05021 3.51522 1 4.06413 1C4.61304 1 5.15144 1.05021 5.6758 1.10868C6.38174 1.18739 6.94981 1.75562 7.02538 2.46211C7.08116 2.98365 7.12823 3.51879 7.12823 4.06467C7.12823 4.32424 7.11758 4.58146 7.10041 4.83595" stroke="black" stroke-width="1.71" stroke-linecap="round" stroke-linejoin="round"/>
<path d="M4.06413 9.80811C3.51522 9.80811 2.97683 9.85832 2.45247 9.91678C1.74653 9.99549 1.17845 10.5637 1.10289 11.2702C1.04711 11.7918 1 12.3272 1 12.8731C1 13.4189 1.04711 13.9544 1.10289 14.476C1.17846 15.1825 1.74653 15.7507 2.45247 15.8295C2.97683 15.8879 3.51522 15.9381 4.06413 15.9381C4.61304 15.9381 5.15144 15.8879 5.6758 15.8295" stroke="black" stroke-width="1.71" stroke-linecap="round" stroke-linejoin="round"/>
<path d="M9.54993 4.06467C9.54993 3.51879 9.59693 2.98365 9.65271 2.46211C9.72827 1.75562 10.2963 1.18739 11.0023 1.10868C11.5266 1.05021 12.065 1 12.614 1C13.1629 1 13.7012 1.05021 14.2256 1.10868C14.9315 1.18739 15.4996 1.75562 15.5752 2.46211C15.631 2.98365 15.6781 3.51911 15.6781 4.065C15.6781 4.61089 15.631 5.14634 15.5752 5.66788C15.5577 5.83143 15.5138 5.98755 15.4479 6.13191" stroke="black" stroke-width="1.71" stroke-linecap="round" stroke-linejoin="round"/>
<path d="M10.5841 15.0655C13.4554 15.0655 15.0704 13.4499 15.0704 10.5779C15.0704 7.70584 13.4554 6.09033 10.5841 6.09033C7.7129 6.09033 6.09784 7.70584 6.09784 10.5779C6.09784 13.4499 7.7129 15.0655 10.5841 15.0655Z" stroke="black" stroke-width="1.71" stroke-linecap="round" stroke-linejoin="round"/>
</svg>
